<svg xmlns="http://www.w3.org/2000/svg" xmlns:xlink="http://www.w3.org/1999/xlink" version="1.1" width="1000" height="1000" viewBox="0 0 1000 1000" xml:space="preserve">
<desc>Created with Fabric.js 3.5.0</desc>
<defs>
</defs>
<rect x="0" y="0" width="100%" height="100%" fill="rgba(255,255,255,0)"/>
<g transform="matrix(2.9809 0 0 2.9809 462.6335 493.3861)" id="Capa_1">
<path style="stroke: none; stroke-width: 0; stroke-dasharray: none; stroke-linecap: butt; stroke-dashoffset: 0; stroke-linejoin: miter; stroke-miterlimit: 4; is-custom-font: none; font-file-url: none; fill: rgb(94,205,255); fill-rule: nonzero; opacity: 1;" transform=" translate(-126.5745, -136.89)" d="M 102.128 70.841 c -13.88 -0.048 -25.157 -11.356 -25.157 -25.247 c 0 -7.115 2.962 -13.548 7.713 -18.142 l -5.843 -5.494 c -1.057 -0.909 -2.361 -1.358 -3.662 -1.358 c -1.444 0 -2.885 0.554 -3.978 1.649 L 1.64 91.92 c -1.989 1.994 -2.194 5.153 -0.479 7.388 l 25.59 29.224 c 0.515 0.671 0.863 1.446 1.043 2.273 c 1.043 4.785 2.827 9.867 5.199 15.145 l 2.401 -2.401 c 4.196 -4.199 9.777 -6.512 15.714 -6.512 c 5.934 0 11.515 2.312 15.712 6.509 c 0.026 0.026 0.053 0.053 0.078 0.079 l 0.072 0.073 c 2.891 2.905 4.854 6.477 5.804 10.36 c 3.317 -1.898 7.077 -2.929 11.002 -2.929 c 5.925 0 11.495 2.304 15.689 6.487 l 0.094 0.093 c 0.012 0.012 0.024 0.024 0.036 0.036 c 4.196 4.196 6.507 9.776 6.507 15.711 c 0 2.755 -0.519 5.425 -1.472 7.924 c 4.794 0.643 9.23 2.802 12.713 6.282 l 0.109 0.109 c 3.085 3.086 5.05 6.865 5.938 10.839 l 50.441 50.441 c 2.7 2.701 6.316 4.129 9.921 4.129 c 2.866 0 5.725 -0.903 8.106 -2.789 c 6.361 -5.035 6.756 -14.404 1.184 -19.977 l -48.811 -48.811 c -2.517 -2.516 -2.517 -6.595 0 -9.11 c 1.276 -1.276 2.949 -1.915 4.622 -1.915 c 1.674 0 3.347 0.639 4.623 1.915 l 62.081 62.081 c 2.701 2.7 6.317 4.129 9.921 4.129 c 2.867 0 5.725 -0.904 8.107 -2.789 c 6.361 -5.035 6.755 -14.404 1.183 -19.977 l -62.373 -62.374 c -2.551 -2.55 -2.551 -6.685 0 -9.234 l 0 0 c 1.26 -1.26 2.91 -1.89 4.561 -1.89 c 1.65 0 3.301 0.63 4.561 1.89 l 48.518 48.518 c 2.701 2.701 6.318 4.129 9.922 4.129 c 2.866 0 5.725 -0.903 8.106 -2.789 c 6.361 -5.035 6.756 -14.404 1.183 -19.977 L 146.441 71.404 L 102.128 70.841 z" stroke-linecap="round"/>
</g>
<g transform="matrix(2.9809 0 0 2.9809 497.1407 827.3205)" id="Capa_1">
<path style="stroke: none; stroke-width: 0; stroke-dasharray: none; stroke-linecap: butt; stroke-dashoffset: 0; stroke-linejoin: miter; stroke-miterlimit: 4; is-custom-font: none; font-file-url: none; fill: rgb(94,205,255); fill-rule: nonzero; opacity: 1;" transform=" translate(-138.1492, -248.9125)" d="M 136.744 262.609 c 3.916 0 7.831 -1.695 10.515 -5.086 c 4.256 -5.377 3.51 -13.18 -1.339 -18.028 l -4.28 -4.279 c -0.372 5.139 -2.498 10.174 -6.418 14.095 l -5.567 5.565 c -1.053 1.054 -2.194 1.987 -3.405 2.797 l 1.033 1.034 C 129.885 261.308 133.314 262.609 136.744 262.609 z" stroke-linecap="round"/>
</g>
<g transform="matrix(2.9809 0 0 2.9809 632.6059 336.5279)" id="Capa_1">
<path style="stroke: none; stroke-width: 0; stroke-dasharray: none; stroke-linecap: butt; stroke-dashoffset: 0; stroke-linejoin: miter; stroke-miterlimit: 4; is-custom-font: none; font-file-url: none; fill: rgb(0,176,255); fill-rule: nonzero; opacity: 1;" transform=" translate(-183.5941, -84.269)" d="M 207.014 17.256 c -1.093 -1.096 -2.533 -1.65 -3.978 -1.65 c -1.301 0 -2.605 0.45 -3.662 1.359 l -4.645 2.649 c -0.008 0.007 -0.017 0.011 -0.026 0.013 l -92.483 12.719 c -7.286 0 -13.248 5.962 -13.248 13.248 c 0 7.286 5.962 13.247 13.248 13.247 l 49.323 0.626 c 0 0 76.438 76.475 93.428 93.465 c 13.355 -17.017 25.269 -34.811 28.649 -50.321 c 0.181 -0.826 0.528 -1.602 1.043 -2.272 l 2.391 -6.024 c 1.716 -2.234 1.511 -5.393 -0.478 -7.389 L 207.014 17.256 z" stroke-linecap="round"/>
</g>
<g transform="matrix(2.9809 0 0 2.9809 225.9291 572.1335)" id="Capa_1">
<path style="stroke: none; stroke-width: 0; stroke-dasharray: none; stroke-linecap: butt; stroke-dashoffset: 0; stroke-linejoin: miter; stroke-miterlimit: 4; is-custom-font: none; font-file-url: none; fill: rgb(0,176,255); fill-rule: nonzero; opacity: 1;" transform=" translate(-47.1671, -163.306)" d="M 35.998 174.582 c 1.996 1.995 4.61 2.993 7.226 2.993 c 2.615 0 5.23 -0.998 7.226 -2.993 l 7.992 -7.993 c 3.992 -3.99 3.992 -10.461 0 -14.451 l -0.106 -0.107 c -1.996 -1.996 -4.611 -2.994 -7.226 -2.994 c -2.615 0 -5.231 0.998 -7.226 2.994 l -7.994 7.994 c -3.989 3.989 -3.989 10.46 0 14.45 L 35.998 174.582 z" stroke-linecap="round"/>
</g>
<g transform="matrix(2.9809 0 0 2.9809 307.0297 630.4194)" id="Capa_1">
<path style="stroke: none; stroke-width: 0; stroke-dasharray: none; stroke-linecap: butt; stroke-dashoffset: 0; stroke-linejoin: miter; stroke-miterlimit: 4; is-custom-font: none; font-file-url: none; fill: rgb(0,176,255); fill-rule: nonzero; opacity: 1;" transform=" translate(-74.3736, -182.859)" d="M 64.97 202.588 c 2.615 0 5.23 -0.998 7.227 -2.994 l 18.914 -18.913 c 3.99 -3.989 3.99 -10.46 0 -14.451 l -0.107 -0.106 c -1.995 -1.996 -4.61 -2.994 -7.226 -2.994 c -2.616 0 -5.231 0.998 -7.229 2.994 l -18.912 18.912 c -3.991 3.991 -3.991 10.46 0 14.451 l 0.106 0.107 C 59.739 201.59 62.354 202.588 64.97 202.588 z" stroke-linecap="round"/>
</g>
<g transform="matrix(2.9809 0 0 2.9809 370.2036 709.982)" id="Capa_1">
<path style="stroke: none; stroke-width: 0; stroke-dasharray: none; stroke-linecap: butt; stroke-dashoffset: 0; stroke-linejoin: miter; stroke-miterlimit: 4; is-custom-font: none; font-file-url: none; fill: rgb(0,176,255); fill-rule: nonzero; opacity: 1;" transform=" translate(-95.5662, -209.5495)" d="M 82.275 222.95 c 1.995 1.995 4.611 2.992 7.226 2.992 c 2.615 0 5.231 -0.997 7.225 -2.992 l 12.241 -12.241 c 3.989 -3.99 3.989 -10.462 0 -14.452 l -0.108 -0.108 c -1.996 -1.995 -4.611 -2.992 -7.227 -2.992 c -2.614 0 -5.229 0.997 -7.226 2.992 l -12.239 12.241 c -3.991 3.991 -3.991 10.462 0 14.452 L 82.275 222.95 z" stroke-linecap="round"/>
</g>
<g transform="matrix(2.9809 0 0 2.9809 433.1165 789.8069)" id="Capa_1">
<path style="stroke: none; stroke-width: 0; stroke-dasharray: none; stroke-linecap: butt; stroke-dashoffset: 0; stroke-linejoin: miter; stroke-miterlimit: 4; is-custom-font: none; font-file-url: none; fill: rgb(0,176,255); fill-rule: nonzero; opacity: 1;" transform=" translate(-116.6714, -236.328)" d="M 121.168 246.391 l 5.568 -5.567 c 3.989 -3.99 3.989 -10.46 0 -14.451 l -0.106 -0.108 c -1.995 -1.995 -4.61 -2.993 -7.227 -2.993 c -2.615 0 -5.23 0.998 -7.227 2.993 l -5.567 5.567 c -3.992 3.99 -3.992 10.462 0 14.453 l 0.108 0.106 c 1.995 1.995 4.61 2.993 7.225 2.993 C 116.557 249.384 119.173 248.386 121.168 246.391 z" stroke-linecap="round"/>
</g>
</svg>