<?xml version="1.0" standalone="no"?>
<!DOCTYPE svg PUBLIC "-//W3C//DTD SVG 20010904//EN"
 "http://www.w3.org/TR/2001/REC-SVG-20010904/DTD/svg10.dtd">
<svg version="1.0" xmlns="http://www.w3.org/2000/svg"
 width="3125.000000pt" height="3125.000000pt" viewBox="0 0 3125.000000 3125.000000"
 preserveAspectRatio="xMidYMid meet">
<metadata>
Created by potrace 1.14, written by Peter Selinger 2001-2017
</metadata>
<g transform="translate(0.000000,3125.000000) scale(0.100000,-0.100000)"
fill="#000000" stroke="none">
<path d="M21458 27114 c-66 -15 -119 -41 -198 -94 -30 -20 -147 -89 -260 -152
l-205 -116 -4305 -590 c-2368 -325 -4343 -593 -4390 -597 -561 -40 -1028 -462
-1126 -1015 -15 -87 -21 -305 -9 -376 68 -418 309 -756 670 -937 174 -88 326
-126 535 -133 74 -3 1058 -16 2185 -29 1128 -13 2135 -26 2239 -28 l188 -4
4353 -4353 4352 -4352 135 174 c520 668 1035 1396 1385 1958 576 924 924 1679
1117 2427 51 198 74 263 116 323 9 14 65 148 124 298 59 149 123 297 141 328
57 95 70 145 70 274 0 131 -17 189 -79 282 -20 30 -1477 1497 -3323 3345
-3000 3004 -3293 3295 -3350 3323 -119 58 -247 73 -365 44z"/>
<path d="M9540 26645 c-147 -41 101 200 -3458 -3362 -1811 -1813 -3307 -3316
-3323 -3340 -16 -23 -42 -73 -56 -110 -23 -58 -27 -84 -27 -173 -1 -124 15
-186 71 -276 21 -34 573 -672 1228 -1418 864 -986 1200 -1376 1227 -1424 26
-46 47 -107 68 -197 68 -284 171 -612 279 -891 55 -143 155 -383 178 -427 l14
-28 157 152 c237 230 381 338 597 446 281 141 541 208 860 220 736 27 1422
-335 1830 -965 99 -154 166 -309 260 -599 3 -8 46 8 127 47 549 266 1182 276
1743 28 420 -185 799 -544 1009 -958 146 -287 213 -550 223 -875 8 -260 -19
-461 -92 -693 -19 -59 -33 -108 -31 -109 1 -2 40 -10 87 -18 668 -124 1243
-576 1519 -1194 46 -102 113 -296 125 -365 6 -27 414 -440 2403 -2428 2233
-2231 2404 -2400 2497 -2461 153 -101 307 -164 490 -203 111 -23 351 -24 466
-1 438 87 795 400 933 817 46 141 60 234 60 400 0 270 -65 485 -217 710 -39
58 -588 613 -2402 2430 -2198 2201 -2354 2360 -2387 2425 -55 107 -72 175 -71
290 0 84 5 113 30 185 36 104 85 182 162 252 201 186 512 214 742 67 48 -30
810 -786 3029 -3003 2302 -2300 2982 -2974 3040 -3013 149 -100 319 -172 500
-210 117 -24 364 -25 477 0 242 52 429 150 605 316 350 331 474 846 314 1306
-46 135 -100 237 -189 355 -22 30 -1380 1396 -3017 3035 -2835 2838 -2978
2983 -3008 3048 -46 96 -63 169 -63 273 -1 109 20 194 69 288 71 137 189 236
342 290 157 55 338 38 490 -46 43 -24 574 -549 2395 -2368 2509 -2505 2393
-2394 2593 -2494 323 -162 715 -180 1046 -47 155 62 291 156 418 289 227 239
339 522 339 857 0 264 -62 470 -208 695 -49 75 -645 675 -4890 4921 l-4835
4836 -407 7 c-223 3 -1128 15 -2011 26 -1782 21 -1880 23 -2029 45 -417 60
-832 241 -1158 506 -378 307 -673 765 -792 1232 -83 323 -98 654 -46 977 74
452 291 886 618 1236 l67 72 -280 263 c-288 271 -334 307 -429 341 -75 27
-227 33 -301 13z"/>
<path d="M7259 14685 c-110 -21 -234 -68 -330 -127 -73 -44 -144 -111 -545
-512 -496 -496 -516 -520 -584 -690 -50 -126 -64 -204 -63 -361 0 -154 16
-231 73 -368 76 -183 247 -370 431 -471 88 -48 226 -91 339 -106 234 -30 488
37 679 180 80 59 903 884 954 956 196 274 230 647 87 951 -124 265 -360 462
-640 533 -110 28 -295 35 -401 15z"/>
<path d="M10352 13379 c-85 -11 -200 -43 -278 -79 -155 -70 -168 -82 -1145
-1059 -516 -515 -958 -965 -984 -1001 -63 -87 -119 -200 -152 -307 -24 -80
-27 -103 -27 -253 -1 -132 3 -179 18 -235 47 -174 130 -319 256 -446 352 -355
902 -383 1288 -65 115 95 1875 1865 1924 1936 63 89 113 193 145 297 24 80 27
104 27 253 1 144 -2 175 -22 245 -61 212 -171 379 -336 510 -139 112 -307 183
-481 204 -100 12 -141 12 -233 0z"/>
<path d="M12015 10583 c-147 -20 -313 -85 -433 -169 -41 -28 -317 -297 -698
-678 -673 -673 -696 -699 -764 -863 -57 -136 -72 -214 -73 -368 -1 -165 20
-268 82 -400 55 -118 112 -198 207 -292 137 -134 299 -221 484 -258 66 -13
116 -16 220 -12 142 5 198 17 328 67 163 63 191 88 845 739 335 333 638 642
673 686 186 231 254 554 177 840 -20 74 -90 227 -134 292 -76 111 -219 240
-341 307 -163 90 -392 133 -573 109z"/>
<path d="M13600 7766 c-120 -27 -251 -82 -350 -149 -64 -42 -702 -679 -756
-754 -56 -78 -118 -210 -146 -310 -18 -65 -21 -106 -21 -238 0 -185 16 -262
83 -404 260 -542 915 -722 1415 -388 81 54 700 673 754 755 59 88 117 213 143
307 29 108 32 356 5 455 -57 205 -135 339 -283 481 -134 127 -282 205 -467
244 -83 18 -299 18 -377 1z"/>
<path d="M15860 6634 c0 -59 -42 -279 -75 -395 -66 -227 -185 -467 -333 -666
-128 -172 -844 -876 -992 -975 l-25 -16 75 -77 c181 -186 402 -306 665 -361
95 -20 328 -23 426 -6 253 45 475 155 656 326 184 173 305 388 359 636 26 119
26 381 1 500 -40 188 -117 363 -221 508 -31 43 -164 185 -296 317 -224 224
-240 238 -240 209z"/>
</g>
</svg>
