<svg xmlns="http://www.w3.org/2000/svg" viewBox="0 0 600 700" width="200" height="233" preserveAspectRatio="xMidYMid meet" role="img" aria-label="Smartable animated loader">
  <defs>
    <style>
      .frame { fill:#1E73C9; }
      .hinge { fill:#184E80; }
      .inner { fill:#FFFFFF; }
      .cell {
        fill:#CFE9FF;
        transform-origin: center;
        opacity: 0;
        transform: scale(0.8);
      }
      .tick {
        fill:none;
        stroke:#FF7A2D;
        stroke-width:30;
        stroke-linecap:round;
        stroke-linejoin:round;
        stroke-dasharray:400;
        stroke-dashoffset:400;
      }

      @keyframes cellPop {
        0% { transform: scale(0.8); opacity: 0; }
        60% { transform: scale(1.1); opacity: 1; }
        100% { transform: scale(1); opacity: 1; }
      }

      @keyframes tickDraw {
        to { stroke-dashoffset: 0; }
      }

      .cell-0 { animation: cellPop 0.3s cubic-bezier(0.22, 1.1, 0.36, 1) 0.1s infinite; }
      .cell-1 { animation: cellPop 0.3s cubic-bezier(0.22, 1.1, 0.36, 1) 0.2s infinite; }
      .cell-2 { animation: cellPop 0.3s cubic-bezier(0.22, 1.1, 0.36, 1) 0.3s infinite; }
      .cell-3 { animation: cellPop 0.3s cubic-bezier(0.22, 1.1, 0.36, 1) 0.4s infinite; }
      .cell-4 { animation: cellPop 0.3s cubic-bezier(0.22, 1.1, 0.36, 1) 0.5s infinite; }
      .cell-5 { animation: cellPop 0.3s cubic-bezier(0.22, 1.1, 0.36, 1) 0.6s infinite; }
      .cell-6 { animation: cellPop 0.3s cubic-bezier(0.22, 1.1, 0.36, 1) 0.7s infinite; }
      .cell-7 { animation: cellPop 0.3s cubic-bezier(0.22, 1.1, 0.36, 1) 0.8s infinite; }
      .cell-8 { animation: cellPop 0.3s cubic-bezier(0.22, 1.1, 0.36, 1) 0.9s infinite; }
      .tick { animation: tickDraw 0.6s ease-out 1.1s infinite; }
    </style>
    <filter id="glow" x="-50%" y="-50%" width="200%" height="200%">
      <feGaussianBlur stdDeviation="4" result="coloredBlur"/>
      <feMerge>
        <feMergeNode in="coloredBlur"/>
        <feMergeNode in="SourceGraphic"/>
      </feMerge>
    </filter>
  </defs>

  <g transform="translate(80,40)">
    <rect x="0" y="40" width="440" height="380" rx="36" ry="36" class="frame"/>
    <rect x="72" y="0" width="36" height="80" rx="18" ry="18" class="hinge"/>
    <rect x="332" y="0" width="36" height="80" rx="18" ry="18" class="hinge"/>
    <rect x="28" y="92" width="384" height="292" rx="10" ry="10" class="inner"/>
    <g id="grid" transform="translate(48,112)">
      <rect x="0" y="0" width="96" height="64" rx="10" ry="10" class="cell cell-0"/>
      <rect x="120" y="0" width="96" height="64" rx="10" ry="10" class="cell cell-1"/>
      <rect x="240" y="0" width="96" height="64" rx="10" ry="10" class="cell cell-2"/>
      <rect x="240" y="86" width="96" height="64" rx="10" ry="10" class="cell cell-3"/>
      <rect x="240" y="172" width="96" height="64" rx="10" ry="10" class="cell cell-4"/>
      <rect x="120" y="172" width="96" height="64" rx="10" ry="10" class="cell cell-5"/>
      <rect x="0" y="172" width="96" height="64" rx="10" ry="10" class="cell cell-6"/>
      <rect x="0" y="86" width="96" height="64" rx="10" ry="10" class="cell cell-7"/>
      <rect x="120" y="86" width="96" height="64" rx="10" ry="10" class="cell cell-8"/>
      <path d="M36 140 L110 200 L300 40" class="tick" filter="url(#glow)"/>
    </g>
  </g>
</svg>
