<?xml version="1.0" encoding="iso-8859-1"?>
<!-- Wrench with centered hexagonal nut -->
<svg version="1.1" id="Layer_1" xmlns="http://www.w3.org/2000/svg" xmlns:xlink="http://www.w3.org/1999/xlink" 
	 viewBox="0 0 392.549 392.549" xml:space="preserve" style="display: block; margin: auto;">
<defs>
	<!-- Gradient from blue to teal/green for bolt -->
	<linearGradient id="mainGradient" x1="0%" y1="100%" x2="0%" y2="0%">
		<stop offset="0%" style="stop-color:#1E88E5;stop-opacity:1" />
		<stop offset="100%" style="stop-color:#4DB6AC;stop-opacity:1" />
	</linearGradient>
	
	<!-- Gradient for wrench head -->
	<linearGradient id="headGradient" x1="0%" y1="100%" x2="0%" y2="0%">
		<stop offset="0%" style="stop-color:#26A69A;stop-opacity:1" />
		<stop offset="100%" style="stop-color:#66BB6A;stop-opacity:1" />
	</linearGradient>
</defs>

<g transform="translate(-30, -35)">
<!-- Wrench outline (dark blue) -->
<path style="fill:#194F82; stroke:#194F82; stroke-width:12; stroke-linejoin:round; stroke-linecap:round;" d="M308.113,359.952l-8.857-8.857l8.404-8.404c4.267-4.267,4.267-11.119,0-15.386
	c-4.267-4.267-11.119-4.267-15.386,0l-8.404,8.404l-14.933-14.933l24.501-24.501c4.267-4.267,4.267-11.119,0-15.386
	c-4.267-4.267-11.119-4.267-15.386,0l-24.501,24.501l-49.778-49.778c-4.655-4.331-9.503-3.103-10.408-2.844
	c-16.614,5.43-54.368,5.042-79.838-21.527c-15.774-15.774-24.372-37.236-24.242-59.216l29.802,29.802
	c24.889,23.273,60.186,22.109,82.683,0c22.82-22.82,22.82-59.863,0-82.683l-29.802-29.802c22.432,0,43.442,8.469,59.281,24.242
	c20.687,20.687,28.962,51.329,21.527,79.774c-1.034,3.685,0.065,7.758,2.844,10.408L360.024,308.17
	c14.287,14.287,14.287,37.56,0,51.846C345.543,373.786,322.464,374.691,308.113,359.952z"/>

<!-- Wrench fill (gradient) -->
<path style="fill:url(#headGradient);" d="M360.024,308.105L255.62,203.701c-2.715-2.715-3.814-6.723-2.844-10.408
	c7.434-28.509-0.84-59.022-21.527-79.774c-15.774-15.774-36.848-24.372-59.281-24.242l29.802,29.802
	c22.82,22.82,22.82,59.863,0,82.683c-22.497,22.109-57.794,23.273-82.683,0L89.285,171.96c-0.065,21.915,8.469,43.442,24.242,59.216
	c25.406,26.57,63.16,26.958,79.838,21.527c0.905-0.259,5.883-1.487,10.408,2.844l49.778,49.778l24.501-24.501
	c4.267-4.267,11.119-4.267,15.386,0c4.267,4.267,4.267,11.119,0,15.386l-24.501,24.566l14.869,14.869l8.404-8.404
	c4.267-4.267,11.119-4.267,15.386,0c4.267,4.267,4.267,11.119,0,15.386l-8.404,8.404l8.857,8.857
	c14.352,14.739,37.495,13.834,51.846,0C374.311,345.665,374.311,322.392,360.024,308.105z"/>

<!-- Hexagonal bolt head - moved right and up to (165, 167) -->
<path style="fill:url(#mainGradient);" d="M 200.00,167.00 L 182.50,197.31 L 147.50,197.31 L 130.00,167.00 L 147.50,136.69 L 182.50,136.69 Z M 179.00,167.00 L 172.00,179.12 L 158.00,179.12 L 151.00,167.00 L 158.00,154.88 L 172.00,154.88">
	<animateTransform
		attributeName="transform"
		attributeType="XML"
		type="rotate"
		from="0 165 167"
		to="360 165 167"
		dur="4s"
		repeatCount="indefinite"/>
</path>
</g>
</svg>
