<svg width="96" height="48" viewBox="0 0 96 48" fill="none" xmlns="http://www.w3.org/2000/svg">
<path d="M48 0C21.4905 0 0 10.7453 0 24C0 37.2547 21.4905 48 48 48C74.5095 48 96 37.2547 96 24C96 10.7453 74.5095 0 48 0ZM48 44.211C23.583 44.211 3.789 35.1623 3.789 24C3.789 12.8378 23.583 3.789 48 3.789C72.417 3.789 92.211 12.8378 92.211 24C92.211 35.1623 72.417 44.211 48 44.211ZM41.9468 19.7895V15.9998H55.488V19.7895H50.613V32.0003H46.8225V19.7895H41.9468ZM71.8335 15.9998V32.0003H68.0445L61.1723 22.4753V32.0003H57.3833V15.9998H61.1723L68.0445 25.5248V15.9998H71.8335ZM24.054 32.0003V15.9998H27.843L32.0527 22.4753L36.2625 15.9998H40.05V32.0003H36.2625V22.95L33.3885 27.3675H30.717L27.843 22.95V32.0003H24.054Z" fill="#FFCB05"/>
</svg>
