<?xml version="1.0" encoding="UTF-8"?>
<svg xmlns="http://www.w3.org/2000/svg" viewBox="0 0 76 76" width="76" height="76">
  <style>
    .icon-grp-color { fill: #97D700; }
    .icon-grp-bg { fill: #1A1A1A; }
  </style>
  <g id="icon-grp">
    <path id="fill" class="icon-grp-color" d="M38.3,72C19.2,72,3.7,56.5,3.7,37.4S19.2,2.9,38.3,2.9s34.6,15.5,34.6,34.6S57.4,72,38.3,72z"></path>
    <path id="border" class="icon-grp-bg" d="M38.3,4.6c18.1,0,32.8,14.7,32.8,32.8c0,18.1-14.7,32.8-32.8,32.8c-18.1,0-32.8-14.7-32.8-32.8
			C5.5,19.3,20.2,4.6,38.3,4.6 M38.3,1.1C18.3,1.1,2,17.4,2,37.4s16.3,36.3,36.3,36.3c20,0,36.3-16.3,36.3-36.3S58.3,1.1,38.3,1.1
			L38.3,1.1z"></path>
    <path id="icon" class="icon-grp-bg" d="M59.2,36l2.8-4l-3-7.3l-4.8-0.9l-2.1-2.1l-0.8-4.8l-7.4-3.1l-4,2.8l-3,0l-4-2.8l-7.4,3l-0.9,4.8
			l-2.2,2.1l-4.8,0.9l-3.1,7.3l2.8,4l0,3l-2.8,4l3,7.4l4.8,0.9l2.1,2.1l0.9,4.8l7.3,3.1l4-2.8h3l4,2.8l7.4-3l0.9-4.8l2.2-2.1l4.8-0.8
			l3.1-7.3l-2.8-4V36z M58.1,43.5l-1.6,3.9l-4,0.7l-3.7,3.7l-0.7,4l-3.9,1.6l-3.3-2.3h-5.2l-3.4,2.3l-3.9-1.6l-0.7-4l-3.6-3.7l-4-0.7
			l-1.6-3.9l2.3-3.3l0-5.2l-2.3-3.4l1.6-3.9l4-0.7l3.7-3.7l0.7-4l3.9-1.6l3.3,2.3l5.2,0l3.4-2.3l3.9,1.6l0.7,4l3.7,3.7l4,0.7l1.6,3.9
			l-2.3,3.4v5.2L58.1,43.5z M51.2,38.4c0,7.1-5.8,12.9-12.9,12.9c-7.1,0-12.9-5.8-12.9-12.9c0-3.4,1.3-6.7,3.8-9.1l2.4,2.4
			c-1.8,1.8-2.8,4.2-2.8,6.7c0,3.8,2.2,7,5.4,8.5l4.7-7.4L31.7,38l7.9-14.1l3,1.7l-5.6,10l7.6,1.7l-6.7,10.6c0.2,0,0.3,0,0.5,0
			c5.2,0,9.4-4.2,9.4-9.4c0-2.8-1.2-5.4-3.4-7.2l2.2-2.7C49.5,31,51.2,34.6,51.2,38.4z"></path>
  </g>
</svg>
