<?xml version="1.0" standalone="no"?>
<!DOCTYPE svg PUBLIC "-//W3C//DTD SVG 20010904//EN"
 "http://www.w3.org/TR/2001/REC-SVG-20010904/DTD/svg10.dtd">
<svg version="1.0" xmlns="http://www.w3.org/2000/svg"
 width="2261.000000pt" height="763.000000pt" viewBox="0 0 2261.000000 763.000000"
 preserveAspectRatio="xMidYMid meet">

<g transform="translate(0.000000,763.000000) scale(0.100000,-0.100000)"
fill="#000000" stroke="none">
<path d="M2506 6112 c-27 -262 -156 -600 -383 -1001 -110 -194 -226 -365 -594
-876 -434 -602 -643 -988 -715 -1320 -13 -58 -17 -121 -16 -230 3 -378 104
-708 310 -1016 74 -110 208 -260 306 -341 l59 -50 33 114 c59 206 166 464 274
658 151 273 203 352 475 730 484 670 753 1075 856 1286 101 207 145 566 104
849 -56 395 -258 796 -570 1136 -38 42 -84 88 -101 102 l-31 26 -7 -67z"/>
<path d="M9660 3045 l0 -1345 290 0 290 0 0 273 0 272 83 83 84 83 213 -355
213 -356 323 0 c178 0 324 2 324 5 0 3 -570 889 -695 1079 -14 21 2 41 310
405 179 211 328 387 331 392 3 5 -143 9 -334 9 l-340 0 -173 -212 c-96 -117
-211 -259 -256 -316 l-83 -102 0 715 0 715 -290 0 -290 0 0 -1345z"/>
<path d="M5660 2975 l0 -1275 870 0 870 0 0 240 0 240 -575 0 -575 0 0 300 0
300 490 0 490 0 0 230 0 230 -490 0 -490 0 0 265 0 265 575 0 575 0 0 240 0
240 -870 0 -870 0 0 -1275z"/>
<path d="M19265 3038 c-246 -667 -458 -1241 -471 -1275 l-23 -63 318 0 317 0
75 235 74 235 437 0 437 0 76 -235 76 -235 314 0 c173 0 315 3 315 6 0 4 -212
577 -472 1275 l-471 1269 -277 0 -277 0 -448 -1212z m872 43 c73 -227 133
-417 133 -422 0 -5 -122 -9 -281 -9 -251 0 -280 2 -275 16 3 8 65 198 136 422
72 224 133 414 136 422 8 19 -9 67 151 -429z"/>
<path d="M21450 2975 l0 -1275 300 0 300 0 0 1275 0 1275 -300 0 -300 0 0
-1275z"/>
<path d="M3880 4056 c0 -30 -87 -241 -151 -366 -156 -307 -392 -657 -758
-1125 -300 -383 -449 -608 -600 -905 -92 -181 -142 -303 -186 -456 -26 -90
-51 -231 -43 -239 9 -9 264 -35 341 -35 94 0 246 16 345 36 468 96 871 367
1133 763 169 256 263 527 290 841 10 115 9 153 -5 260 -33 259 -131 614 -291
1065 -55 156 -75 198 -75 161z"/>
<path d="M16920 3825 l0 -235 -125 0 -125 0 0 -205 0 -205 124 0 125 0 3 -542
c4 -477 6 -550 21 -603 68 -237 224 -352 503 -371 97 -7 240 7 322 31 l52 16
0 212 0 212 -118 0 c-128 0 -154 8 -189 62 -16 25 -18 68 -21 505 l-3 478 156
0 155 0 0 205 0 205 -155 0 -155 0 0 235 0 235 -285 0 -285 0 0 -235z"/>
<path d="M8610 3619 c-141 -22 -269 -83 -369 -176 -30 -29 -56 -53 -57 -53 -2
0 -6 45 -9 100 l-8 100 -268 0 -269 0 0 -945 0 -945 285 0 285 0 0 667 0 667
51 49 c28 27 66 55 84 63 52 22 134 27 215 15 98 -16 136 -40 169 -110 l26
-56 3 -647 3 -648 285 0 285 0 -4 693 c-4 734 -6 759 -54 886 -81 215 -251
333 -495 345 -51 3 -122 0 -158 -5z"/>
<path d="M12484 3616 c-113 -26 -194 -84 -267 -190 -24 -35 -43 -55 -44 -46
-2 8 -7 58 -11 110 l-7 95 -267 3 -268 2 0 -945 0 -945 285 0 285 0 0 603 c0
681 -5 635 82 695 78 54 143 67 316 65 l152 -2 0 273 0 274 -22 6 c-54 14
-176 15 -234 2z"/>
<path d="M15735 3624 c-138 -19 -247 -68 -331 -150 l-53 -51 -6 46 c-3 25 -8
63 -11 84 l-6 37 -264 0 -264 0 0 -1310 0 -1310 285 0 285 0 0 442 0 442 38
-35 c94 -90 188 -133 323 -148 72 -8 210 -1 261 14 380 107 584 519 546 1103
-19 295 -109 517 -273 670 -72 68 -178 125 -270 147 -65 15 -211 26 -260 19z
m54 -483 c130 -67 184 -212 183 -491 0 -244 -37 -376 -126 -458 -106 -98 -307
-92 -414 11 -63 60 -62 51 -62 450 0 362 0 364 23 398 30 44 94 89 154 105 71
20 188 13 242 -15z"/>
<path d="M12785 3573 c4 -10 152 -440 330 -956 l324 -939 -39 -90 c-65 -151
-114 -184 -292 -195 l-98 -6 0 -213 0 -212 96 -18 c112 -20 254 -15 344 11
181 54 310 187 400 412 42 106 770 2199 770 2214 0 6 -121 8 -302 7 l-302 -3
-155 -532 c-85 -293 -158 -530 -161 -527 -3 3 -73 242 -155 532 l-150 527
-309 3 c-291 2 -308 1 -301 -15z"/>
</g>
</svg>
