<?xml version="1.0" encoding="UTF-8"?>
<!DOCTYPE svg PUBLIC "-//W3C//DTD SVG 1.1//EN" "http://www.w3.org/Graphics/SVG/1.1/DTD/svg11.dtd">
<svg xmlns="http://www.w3.org/2000/svg" version="1.1" width="1080px" height="223px" style="shape-rendering:geometricPrecision; text-rendering:geometricPrecision; image-rendering:optimizeQuality; fill-rule:evenodd; clip-rule:evenodd" xmlns:xlink="http://www.w3.org/1999/xlink">
<g><path style="opacity:0.979" fill="#012a66" d="M 270.5,66.5 C 230.684,37.0376 186.684,28.5376 138.5,41C 109.792,49.5824 86.1256,65.4157 67.5,88.5C 46.4224,106.553 25.0891,124.386 3.5,142C 2.25501,142.791 0.921673,143.291 -0.5,143.5C -0.5,143.167 -0.5,142.833 -0.5,142.5C 5.67726,75.487 40.3439,30.3203 103.5,7C 165.804,-9.22691 218.638,6.27309 262,53.5C 265.082,57.7336 267.916,62.0669 270.5,66.5 Z"/></g>
<g><path style="opacity:0.946" fill="#012966" d="M 384.5,9.5 C 399.161,8.99496 406.327,15.995 406,30.5C 399.656,45.3909 389.656,48.3909 376,39.5C 367.751,26.1462 370.584,16.1462 384.5,9.5 Z"/></g>
<g><path style="opacity:0.945" fill="#012966" d="M 829.5,9.5 C 844.161,8.99496 851.327,15.995 851,30.5C 846.262,43.6381 837.429,47.4714 824.5,42C 816.133,35.4066 814.299,27.2399 819,17.5C 821.831,13.8209 825.331,11.1543 829.5,9.5 Z"/></g>
<g><path style="opacity:0.977" fill="#144d92" d="M 270.5,66.5 C 272.728,67.3218 273.395,68.6552 272.5,70.5C 257.757,81.9546 242.923,93.2879 228,104.5C 196.656,62.8302 155.823,49.3302 105.5,64C 91.0882,69.6007 78.4216,77.7674 67.5,88.5C 86.1256,65.4157 109.792,49.5824 138.5,41C 186.684,28.5376 230.684,37.0376 270.5,66.5 Z"/></g>
<g><path style="opacity:0.968" fill="#012966" d="M 877.5,39.5 C 887.167,39.5 896.833,39.5 906.5,39.5C 906.5,48.8333 906.5,58.1667 906.5,67.5C 916.833,67.5 927.167,67.5 937.5,67.5C 937.5,75.1667 937.5,82.8333 937.5,90.5C 927.167,90.5 916.833,90.5 906.5,90.5C 906.5,116.167 906.5,141.833 906.5,167.5C 896.833,167.5 887.167,167.5 877.5,167.5C 877.5,141.833 877.5,116.167 877.5,90.5C 872.833,90.5 868.167,90.5 863.5,90.5C 863.5,82.8333 863.5,75.1667 863.5,67.5C 868.167,67.5 872.833,67.5 877.5,67.5C 877.5,58.1667 877.5,48.8333 877.5,39.5 Z"/></g>
<g><path style="opacity:0.964" fill="#012966" d="M 373.5,67.5 C 383.5,67.5 393.5,67.5 403.5,67.5C 403.5,100.833 403.5,134.167 403.5,167.5C 393.5,167.5 383.5,167.5 373.5,167.5C 373.5,134.167 373.5,100.833 373.5,67.5 Z"/></g>
<g><path style="opacity:0.959" fill="#012966" d="M 494.5,67.5 C 521.167,67.5 547.833,67.5 574.5,67.5C 574.5,75.8333 574.5,84.1667 574.5,92.5C 546.449,92.0338 518.449,92.5338 490.5,94C 487.272,95.5629 485.105,98.0629 484,101.5C 482,112.5 482,123.5 484,134.5C 485.598,139.099 488.765,141.932 493.5,143C 520.831,143.5 548.165,143.667 575.5,143.5C 575.5,151.5 575.5,159.5 575.5,167.5C 545.831,167.667 516.165,167.5 486.5,167C 466.864,165.031 456.364,154.197 455,134.5C 454.333,123.167 454.333,111.833 455,100.5C 455.567,86.1683 462.4,76.335 475.5,71C 481.906,69.4378 488.24,68.2712 494.5,67.5 Z"/></g>
<g><path style="opacity:0.971" fill="#012966" d="M 593.5,67.5 C 602.833,67.5 612.167,67.5 621.5,67.5C 621.054,89.8781 621.554,112.211 623,134.5C 624.819,139.336 628.319,142.169 633.5,143C 649.833,143.667 666.167,143.667 682.5,143C 686.664,142.177 689.831,140.01 692,136.5C 693.469,113.566 693.969,90.5658 693.5,67.5C 702.833,67.5 712.167,67.5 721.5,67.5C 721.667,91.169 721.5,114.836 721,138.5C 719.415,154.085 710.915,163.251 695.5,166C 682.878,167.116 670.212,167.616 657.5,167.5C 644.788,167.616 632.122,167.116 619.5,166C 603.628,163.127 595.128,153.627 594,137.5C 593.5,114.169 593.333,90.8357 593.5,67.5 Z"/></g>
<g><path style="opacity:0.952" fill="#012966" d="M 781.5,67.5 C 790.167,67.5 798.833,67.5 807.5,67.5C 807.5,75.1667 807.5,82.8333 807.5,90.5C 798.126,90.2687 788.792,90.7687 779.5,92C 776.063,93.1049 773.563,95.2716 772,98.5C 770.531,121.434 770.031,144.434 770.5,167.5C 760.833,167.5 751.167,167.5 741.5,167.5C 741.333,146.831 741.5,126.164 742,105.5C 741.346,86.9422 749.846,75.1088 767.5,70C 772.315,69.1966 776.981,68.3633 781.5,67.5 Z"/></g>
<g><path style="opacity:0.964" fill="#012966" d="M 818.5,67.5 C 828.5,67.5 838.5,67.5 848.5,67.5C 848.5,100.833 848.5,134.167 848.5,167.5C 838.5,167.5 828.5,167.5 818.5,167.5C 818.5,134.167 818.5,100.833 818.5,67.5 Z"/></g>
<g><path style="opacity:0.968" fill="#012966" d="M 1079.5,67.5 C 1079.5,104.5 1079.5,141.5 1079.5,178.5C 1076.58,187.916 1070.25,193.749 1060.5,196C 1041.87,197.419 1023.21,197.919 1004.5,197.5C 1004.5,189.833 1004.5,182.167 1004.5,174.5C 1019.24,174.95 1033.91,174.45 1048.5,173C 1050.33,172.5 1051.5,171.333 1052,169.5C 1052.5,165.179 1052.67,160.846 1052.5,156.5C 1028.16,156.667 1003.83,156.5 979.5,156C 962.352,155.181 952.519,146.347 950,129.5C 949.5,108.836 949.333,88.1694 949.5,67.5C 958.833,67.5 968.167,67.5 977.5,67.5C 977.333,86.8362 977.5,106.17 978,125.5C 980.267,131.724 984.767,134.557 991.5,134C 1011.83,134.5 1032.16,134.667 1052.5,134.5C 1052.5,112.167 1052.5,89.8333 1052.5,67.5C 1061.5,67.5 1070.5,67.5 1079.5,67.5 Z"/></g>
<g><path style="opacity:0.979" fill="#012a66" d="M 3.5,154.5 C 44.5969,185.35 89.9302,193.517 139.5,179C 167.117,170.606 189.45,155.439 206.5,133.5C 228.653,114.494 251.153,95.8275 274,77.5C 271.286,131.45 247.119,172.617 201.5,201C 164.437,221.508 125.437,226.174 84.5,215C 50.1506,204.46 23.1506,184.293 3.5,154.5 Z"/></g>
<g><path style="opacity:0.958" fill="#001c4f" d="M 138.5,87.5 C 154.767,89.266 161.934,98.266 160,114.5C 153.961,127.624 144.127,131.791 130.5,127C 119.303,119.045 116.803,108.879 123,96.5C 127.141,91.4828 132.308,88.4828 138.5,87.5 Z"/></g>
<g><path style="opacity:0.976" fill="#144d92" d="M 206.5,133.5 C 189.45,155.439 167.117,170.606 139.5,179C 89.9302,193.517 44.5969,185.35 3.5,154.5C 1.49466,153.746 0.827992,152.579 1.5,151C 16.5,139.833 31.5,128.667 46.5,117.5C 79.1965,160.005 121.196,172.839 172.5,156C 185.407,150.724 196.74,143.224 206.5,133.5 Z"/></g>
</svg>
